<svg width="50" height="51" viewBox="0 0 50 51" fill="none" xmlns="http://www.w3.org/2000/svg">
<path d="M36.299 19.6011H29.2757V17.8571H36.3018V19.6039L36.299 19.6011ZM24.5991 26.7589C25.0533 27.4599 25.2776 28.3122 25.2776 29.3131C25.2776 30.3505 25.0253 31.2757 24.5038 32.0972C24.1564 32.6743 23.692 33.1723 23.1406 33.559C22.5891 33.9458 21.9628 34.2129 21.3019 34.343C20.4906 34.5053 19.6648 34.5842 18.8375 34.5785H10.9814V17.1338H19.4066C21.529 17.1674 23.0346 17.7843 23.9234 18.9927C24.4561 19.7328 24.7225 20.6216 24.7225 21.6562C24.7225 22.7216 24.4561 23.5767 23.915 24.2244C23.6178 24.5889 23.1748 24.9197 22.5888 25.2169C23.4748 25.5421 24.1477 26.0524 24.5991 26.7589ZM15.0048 24.0113H18.6973C19.4543 24.0113 20.0683 23.8683 20.5393 23.5795C21.0131 23.2907 21.2487 22.7805 21.2487 22.0459C21.2487 21.2328 20.9374 20.6945 20.3122 20.4366C19.6442 20.2365 18.9486 20.1438 18.2515 20.1618H15.0048V24.0113ZM21.6047 29.0636C21.6047 28.158 21.2318 27.5328 20.4945 27.1963C20.0795 27.0057 19.4963 26.9075 18.7505 26.8991H15.0048V31.5477H18.6917C19.4487 31.5477 20.0374 31.4496 20.458 31.2421C21.2206 30.8636 21.6047 30.1402 21.6047 29.0636ZM38.9065 26.2262C38.9906 26.7982 39.0298 27.6253 39.0158 28.7075H29.9177C29.9682 29.9636 30.4 30.8412 31.2243 31.343C31.7177 31.6598 32.3177 31.814 33.0243 31.814C33.7672 31.814 34.37 31.6262 34.8383 31.2393C35.1171 31.0013 35.345 30.7095 35.5083 30.3813H38.8448C38.7551 31.1243 38.3541 31.8757 37.6336 32.6411C36.5121 33.8552 34.9476 34.4636 32.9317 34.4636C31.3295 34.4843 29.7712 33.9404 28.5299 32.9271C27.2626 31.901 26.6234 30.2356 26.6234 27.9225C26.6234 25.7552 27.1981 24.0954 28.3449 22.9403C29.4944 21.7824 30.9832 21.2076 32.8168 21.2076C33.9018 21.2076 34.8803 21.401 35.7551 21.7908C36.6242 22.1833 37.3448 22.7973 37.9111 23.6412C38.4242 24.387 38.7522 25.2449 38.9065 26.2262ZM35.6261 26.5515C35.5644 25.6823 35.2728 25.0262 34.7513 24.5777C34.213 24.1192 33.5235 23.8774 32.8168 23.8992C31.9757 23.8992 31.328 24.1431 30.8654 24.6169C30.4028 25.0935 30.114 25.7384 29.9962 26.5515H35.6261Z" fill="white"/>
<rect x="1.5" y="2.35645" width="47" height="47" rx="4.5" stroke="white" stroke-width="3"/>
</svg>
