<svg width="50" height="51" viewBox="0 0 50 51" fill="none" xmlns="http://www.w3.org/2000/svg">
<path d="M25 39.8564C17.2678 39.8564 11 33.5886 11 25.8564C11 18.1242 17.2678 11.8564 25 11.8564C32.7322 11.8564 39 18.1242 39 25.8564C38.9916 33.5844 32.728 39.848 25 39.8564ZM18.168 35.0194L18.161 35.0334C19.7325 36.2107 21.5813 36.9624 23.5284 37.2158C25.4756 37.4691 27.4552 37.2156 29.2756 36.4796C28.7449 33.6255 27.9582 30.8249 26.925 28.1118C24.5519 28.9392 22.3823 30.2626 20.5606 31.994C19.6628 32.8441 18.8856 33.813 18.2506 34.8738L18.2408 34.8892V34.8752L18.2156 34.9242L18.1988 34.9522L18.189 34.9704L18.1652 35.0208L18.168 35.0194ZM31.6906 27.3194C31.0018 27.3194 30.313 27.367 29.6298 27.4594C30.5219 29.9522 31.2239 32.5089 31.7298 35.1076C34.109 33.3926 35.7261 30.8178 36.2378 27.9298C34.7566 27.5212 33.2271 27.3144 31.6906 27.3152V27.3194ZM13.5438 25.7934V25.8718C13.5464 28.5691 14.5007 31.1789 16.2388 33.2414C18.4904 29.7631 21.821 27.1196 25.7196 25.7164L25.8862 25.6688C25.6384 25.1214 25.406 24.6328 25.1736 24.1764C21.4383 25.2238 17.5799 25.7676 13.7006 25.7934H13.5438ZM31.2524 24.945C32.9884 24.952 34.723 25.1102 36.4324 25.4182C36.3433 23.05 35.515 20.7691 34.0636 18.8956C32.3699 20.7898 30.2619 22.2673 27.9036 23.2132L27.9442 23.1964L27.9008 23.2146C28.173 23.7826 28.4288 24.3582 28.668 24.9408L28.7254 25.0808C29.5654 24.9884 30.4082 24.9422 31.2524 24.945ZM19.9278 15.6042C18.4239 16.3465 17.1014 17.4102 16.0539 18.7199C15.0064 20.0297 14.2594 21.5536 13.8658 23.1838C17.1278 23.1334 20.3758 22.7218 23.5468 21.9546H23.586L23.6 21.9364L23.6756 21.9182H23.684L23.74 21.907H23.7624L23.7918 21.8986L23.8478 21.8846L23.88 21.8706L23.9108 21.8622H23.9388C22.7092 19.709 21.37 17.6203 19.9264 15.6042H19.9278ZM25 14.431C24.2336 14.4291 23.4689 14.5018 22.7166 14.648C24.1832 16.6803 25.5291 18.797 26.7472 20.9872C28.9286 20.2103 30.8741 18.8866 32.3976 17.1428C30.3293 15.3937 27.7087 14.433 25 14.431Z" fill="white"/>
<rect x="1.5" y="2.35645" width="47" height="47" rx="4.5" stroke="white" stroke-width="3"/>
</svg>
