<svg width="50" height="51" viewBox="0 0 50 51" fill="none" xmlns="http://www.w3.org/2000/svg">
<rect x="1.5" y="2.35693" width="47" height="47" rx="4.5" stroke="white" stroke-width="3"/>
<path d="M16.3864 34.8694C15.9574 34.5739 15.5885 34.1957 15.1567 33.6638C14.9326 33.3803 14.7105 33.0952 14.4904 32.8084C13.8284 31.9589 13.4109 31.5659 12.9806 31.4048C12.7995 31.3429 12.6322 31.2442 12.4886 31.1144C12.345 30.9847 12.228 30.8266 12.1445 30.6494C12.0609 30.4722 12.0125 30.2795 12.0021 30.0827C11.9917 29.8859 12.0196 29.689 12.0839 29.5035C12.1483 29.3179 12.248 29.1476 12.3771 29.0025C12.5062 28.8574 12.662 28.7404 12.8355 28.6585C13.009 28.5766 13.1966 28.5313 13.3873 28.5255C13.5779 28.5196 13.7678 28.5532 13.9457 28.6243C15.0209 29.0232 15.7487 29.7102 16.7295 30.9705C16.5951 30.7976 17.2157 31.6013 17.3486 31.7668C17.6203 32.1022 17.8205 32.3061 17.9778 32.4139C18.2694 32.6163 18.8185 32.7035 19.6221 32.6207C19.6564 32.0564 19.7565 31.5082 19.9109 31.0015C15.6672 29.9304 13.2651 27.1011 13.2651 21.5519C13.2651 19.7229 13.7941 18.0726 14.7778 16.6898C14.4661 15.369 14.5133 13.7719 15.2096 11.9739C15.2885 11.7702 15.4102 11.5872 15.566 11.4382C15.7219 11.2893 15.9078 11.178 16.1104 11.1125C16.2262 11.0771 16.292 11.0623 16.4078 11.0431C17.556 10.8614 19.1774 11.2942 21.2906 12.6638C22.55 12.3596 23.8392 12.2069 25.1326 12.2088C26.4365 12.2088 27.7334 12.3609 28.9702 12.6638C31.082 11.2854 32.7077 10.851 33.863 11.0431C33.9845 11.0638 34.0889 11.0904 34.1747 11.1184C34.3732 11.1861 34.5549 11.2978 34.7071 11.4459C34.8593 11.5939 34.9782 11.7747 35.0555 11.9753C35.7518 13.7704 35.799 15.3675 35.4873 16.6883C36.4753 18.0712 37 19.7096 37 21.5519C37 27.1041 34.6065 29.923 30.3628 30.9971C30.5415 31.6102 30.6345 32.2942 30.6345 33.0359C30.6345 34.0169 30.6316 34.9551 30.6245 36.0055C30.6245 36.2862 30.6216 36.5876 30.6173 37.0486C30.9377 37.1214 31.2241 37.306 31.4284 37.5711C31.6327 37.8363 31.7426 38.166 31.7396 38.505C31.7366 38.844 31.6209 39.1715 31.4118 39.4328C31.2028 39.694 30.9132 39.8731 30.5916 39.9399C28.9616 40.2767 27.7548 39.1539 27.7548 37.6883L27.7577 37.0279L27.7648 35.9863C27.772 34.9418 27.7763 34.0095 27.7763 33.0359C27.7763 32.0061 27.5132 31.3339 27.1672 31.0251C26.2221 30.183 26.7011 28.5815 27.9407 28.4382C32.1815 27.9447 34.1404 26.2472 34.1404 21.5534C34.1404 20.1425 33.6943 18.9753 32.835 18.0002C32.6544 17.7952 32.5333 17.5419 32.4856 17.2691C32.4378 16.9964 32.4652 16.7152 32.5647 16.4578C32.8021 15.8447 32.9022 15.0439 32.7006 14.0733L32.6863 14.0762C31.9842 14.2831 31.0992 14.7263 30.0297 15.4798C29.8572 15.6007 29.6612 15.6812 29.4555 15.7157C29.2498 15.7501 29.0392 15.7377 28.8386 15.6792C27.6318 15.3334 26.3849 15.1595 25.1326 15.1621C23.86 15.1621 22.5989 15.3394 21.4265 15.6792C21.2269 15.7372 21.0176 15.7497 20.8129 15.7157C20.6082 15.6818 20.4131 15.6023 20.2412 15.4827C19.1645 14.7337 18.2766 14.2904 17.5674 14.0836C17.3629 15.0484 17.4645 15.8476 17.7004 16.4578C17.7999 16.7152 17.8273 16.9964 17.7795 17.2691C17.7318 17.5419 17.6107 17.7952 17.4301 18.0002C16.5765 18.9694 16.1247 20.1558 16.1247 21.5519C16.1247 26.2383 18.085 27.9492 22.3044 28.4367C23.5412 28.5815 24.023 30.1771 23.0836 31.0207C22.8077 31.2674 22.4688 32.1022 22.4688 33.0359V37.6883C22.4688 39.145 21.2763 40.2383 19.6664 39.9472C19.3393 39.8888 19.042 39.7146 18.8256 39.4544C18.6093 39.1943 18.4872 38.8645 18.4805 38.5215C18.4737 38.1786 18.5826 37.8439 18.7886 37.5749C18.9945 37.3058 19.2846 37.1192 19.6092 37.0471V35.5844C18.3081 35.676 17.2343 35.4559 16.3864 34.8694Z" fill="white"/>
</svg>
