<svg width="50" height="51" viewBox="0 0 50 51" fill="none" xmlns="http://www.w3.org/2000/svg">
<path d="M18.8566 18.2638C19.124 17.8637 19.2667 17.3932 19.2667 16.9119C19.2667 16.2666 19.0103 15.6477 18.554 15.1913C18.0976 14.735 17.4787 14.4786 16.8333 14.4786C16.3521 14.4786 15.8816 14.6213 15.4814 14.8887C15.0813 15.1561 14.7694 15.5361 14.5852 15.9808C14.4011 16.4254 14.3529 16.9146 14.4468 17.3867C14.5406 17.8587 14.7724 18.2923 15.1127 18.6326C15.453 18.9729 15.8866 19.2046 16.3586 19.2985C16.8306 19.3924 17.3199 19.3442 17.7645 19.1601C18.2092 18.9759 18.5892 18.664 18.8566 18.2638ZM16.8333 21.4786C16.3943 21.4786 15.9732 21.653 15.6627 21.9635C15.3522 22.274 15.1778 22.6951 15.1778 23.1342V35.5786C15.1778 36.0177 15.3522 36.4388 15.6627 36.7493C15.9732 37.0597 16.3943 37.2342 16.8333 37.2342C17.2724 37.2342 17.6935 37.0597 18.004 36.7493C18.3145 36.4388 18.4889 36.0177 18.4889 35.5786V23.1342C18.4889 22.6951 18.3145 22.274 18.004 21.9635C17.6935 21.653 17.2724 21.4786 16.8333 21.4786ZM28.5 21.4786C27.1261 21.4785 25.7826 21.8771 24.6321 22.6244L21.5 23.1342H21.4V23.1343C21.4 23.1343 21.4 23.1344 21.4 23.1344L21.4 35.5786C21.4 36.0177 21.5744 36.4388 21.8849 36.7493C22.1954 37.0597 22.6165 37.2342 23.0556 37.2342C23.4946 37.2342 23.9157 37.0597 24.2262 36.7493C24.5367 36.4388 24.7111 36.0177 24.7111 35.5786V28.5786C24.7111 27.5737 25.1103 26.61 25.8209 25.8995C26.5314 25.1889 27.4951 24.7897 28.5 24.7897C29.5049 24.7897 30.4686 25.1889 31.1791 25.8995C31.8897 26.61 32.2889 27.5737 32.2889 28.5786V35.5786C32.2889 36.0177 32.4633 36.4388 32.7738 36.7493C33.0843 37.0597 33.5054 37.2342 33.9444 37.2342C34.3835 37.2342 34.8046 37.0597 35.1151 36.7493C35.4256 36.4388 35.6 36.0177 35.6 35.5786V28.5786C35.6 26.6956 34.852 24.8897 33.5205 23.5582C32.1889 22.2266 30.383 21.4786 28.5 21.4786Z" fill="white" stroke="white" stroke-width="0.2"/>
<rect x="1.5" y="2.35645" width="47" height="47" rx="4.5" stroke="white" stroke-width="3"/>
</svg>
